# xmcd
#
# Track frame offsets: 
#        200
#        14050
#        24400
#        49075
#        68862
#        82550
#        99995
#        125425
#        151765
#        164975
#        180940
#
# Disc length: 2659 seconds
#
# Revision: 6
# Processed by: cddbd v1.5PL3 Copyright (c) Steve Scherf et al.
# Submitted via: ExactAudioCopy v0.95a3
#
DISCID=7e0a610b
DTITLE=Lyle Lovett - Step Inside This House 
DYEAR=1998
DGENRE=Country
TTITLE0=Bears
TTITLE1=Lungs
TTITLE2=Step Inside This House
TTITLE3=Memphis Midnight - Memphis Morning
TTITLE4=I've Had Enough
TTITLE5=Teach Me About Love
TTITLE6=Sleepwalking
TTITLE7=Ballad Of The Snow Leopard And The Tanqueray Cowboy
TTITLE8=More Pretty Girls Than One
TTITLE9=West Texas Highway
TTITLE10=Rollin' By
EXTD=LABEL =MCA Records, Inc.\nID =MCAD2-11831\nUPC =008811-183127\n
EXTD=COPYRIGHT =1998
EXTT0=
EXTT1=
EXTT2=
EXTT3=
EXTT4=
EXTT5=
EXTT6=
EXTT7=
EXTT8=
EXTT9=
EXTT10=
PLAYORDER=
